<?xml version="1.0" encoding="iso-8859-1"?>
<!-- Uploaded to: SVG Repo, www.svgrepo.com, Generator: SVG Repo Mixer Tools -->
<svg fill="#000000" height="800px" width="800px" version="1.1" id="Layer_1" xmlns="http://www.w3.org/2000/svg" xmlns:xlink="http://www.w3.org/1999/xlink" 
	 viewBox="0 0 272.57 272.57" xml:space="preserve">
<g>
	<g>
		<g>
			<path d="M265.272,152.897l-0.384-0.476c-0.004-0.004-0.308-0.336-0.208-0.516c15.608-27.332-2.404-48.948-2.584-49.164
				l-1.352-1.584l-12.776,12.02c-10.82-55.356-59.636-97.212-118.028-97.212h-0.492c-32.14,0.128-62.304,12.768-84.936,35.584
				C24.268,71.961,12.24,98.337,10.016,126.677c-5.22,4.9-8.14,8.296-8.244,8.42l-1.136,1.348l9.46,10.116
				c0.584,6.848,1.732,13.576,3.432,20.132c-5.28,0.068-9.728,0.12-10.368,0.128L0,167.065l1.54,2.888
				c4.832,9.088,12.372,16.848,22.488,23.296c5.572,10.336,12.6,19.956,21.172,28.46c22.7,22.516,52.768,34.896,84.724,34.896h0.5
				c49.156-0.2,91.304-30.048,109.788-72.46c9.644,9.96,19.74,20.496,19.74,20.496l1.892-1.436
				C283.672,185.429,265.456,153.221,265.272,152.897z M47.332,54.345c21.888-22.064,51.056-34.284,82.132-34.412
				c0.16,0,0.316,0,0.476,0c57.324,0,105.12,41.728,114.592,96.476l-6.604,6.212c-7.304-53.188-53-94.3-108.164-94.3
				c-52.812,0-96.948,37.688-107.028,87.576c-3.04,2.328-5.78,4.592-8.208,6.708C17.524,96.881,28.812,73.021,47.332,54.345z
				 M149.244,91.421c0,0-29.892-3-45.672-2.58c4.656-5.692,23.164-25.476,57.132-25.884c0.08,0.036,0.164,0.064,0.244,0.1
				C147.128,88.529,149.244,91.421,149.244,91.421z M99.1,88.033l-4.14,0.068c-12.188,0.204-23.608,2.724-34.008,6.484
				c3.248-5.428,7.12-10.524,11.688-15.132c14.844-14.964,34.62-23.248,55.696-23.332c0.108,0,0.22,0,0.328,0
				c7.996,0,15.688,1.264,22.964,3.488C120.088,63.353,102.572,83.613,99.1,88.033z M164.512,64.841
				c19.444,10.004,34.196,27.84,40.1,49.356c-15.132-10.328-33.156-16.988-43.824-20.916c-3.276-1.204-6.648-2.444-7.872-3.092
				C153.184,87.369,157.936,77.009,164.512,64.841z M165.592,62.841c0.164-0.3,0.316-0.588,0.48-0.888l1.568-2.844l-3.248-0.096
				c-2.452-0.072-4.836-0.04-7.152,0.08c-8.896-3.364-18.516-5.244-28.576-5.244h-0.336c-21.68,0.088-42.028,8.612-57.296,24.004
				c-5.36,5.404-9.776,11.468-13.356,17.952c-12.432,4.904-23.272,11.508-32.02,17.904c10.884-47.516,53.34-83.124,104.108-83.124
				c54.568,0,99.688,41.088,106.136,93.944l-10.72,10.088c-4.276-7.072-10.544-13.164-17.644-18.384
				C201.988,92.929,186.388,73.541,165.592,62.841z M130.408,252.637c-0.16,0-0.32,0-0.484,0c-30.9,0-59.976-11.976-81.924-33.748
				c-6.644-6.588-12.316-13.88-17.1-21.648c3.428,1.792,7.1,3.456,11.012,4.996c19.896,26.976,51.836,44.548,87.856,44.548
				c46.804,0,86.724-29.632,102.244-71.084c1.632,1.668,3.384,3.472,5.208,5.348C219.696,222.869,178.52,252.445,130.408,252.637z
				 M176.524,204.113l50.548-33.428c0.936,0.94,2.028,2.052,3.188,3.232c-14.928,41.112-54.288,70.6-100.492,70.6
				c-34.004,0-64.296-15.988-83.896-40.804c10.492,3.76,22.552,6.7,36.212,8.776c14.26,2.172,27.876,2.984,38.436,3.232
				c2.68,0.272,5.38,0.46,8.132,0.46h0.332c2.728-0.012,5.412-0.204,8.064-0.496c1.496-0.048,2.652-0.096,3.324-0.128
				c0.372,0.28,0.8,0.576,1.276,0.904c6.752,4.64,17.072,5.792,25.652,5.792c8.096,0,14.652-1.028,15.2-1.116l2.724-0.44
				L176.524,204.113z M257.896,189.505l10.388-5.58c-0.744,5.372-2.908,10.66-7.604,15.032c-5.224-5.32-23.444-23.668-31.944-32.224
				l-1.144-1.156l-56.248,37.2l7.76,14.796c-6.224,0.7-21.584,1.856-31.64-2.452l-0.528-0.24c-0.088-0.112-0.208-0.212-0.364-0.296
				c-12.1-6.336-18.936-16.584-22.948-29.416c-0.432-1.388-2.624-0.796-2.188,0.604c3.28,10.496,8.464,19.364,16.616,25.9
				c-16.824,0.576-105.088,1.508-131.468-40.924c7.928-0.096,26.7-0.336,26.7-0.336l4.496-0.06L5.976,136.345
				c5.188-5.664,27.236-28.132,58.304-38.704c5.752,18.456,8.112,37.328,7.22,56.68c-0.068,1.46,2.2,1.456,2.268,0
				c0.904-19.572-1.496-38.704-7.328-57.372c8.892-2.828,18.448-4.712,28.58-4.88l5.304-0.088c0.076,0.012,0.104,0.076,0.188,0.076
				c19.188-0.7,38.1,1.008,56.96,4.236c0.612,0.228,1.228,0.456,1.936,0.716c16.26,5.984,50.104,18.436,62.78,40.368
				c0.74,1.276,1.644,1.94,2.7,1.98c0.84-0.012,1.504-0.364,1.916-0.812l33.508-31.528c1.384,2.052,3.616,5.9,5.136,11.04
				l-7.5-4.328l-1.132,1.964l9.4,5.42c0.3,1.412,0.552,2.876,0.696,4.432l-8.984-5.188l-1.132,1.964l10.26,5.924
				c0.028,1.284-0.008,2.604-0.12,3.964l-9.032-5.216l-1.132,1.964l9.876,5.7c-0.172,1.184-0.408,2.392-0.708,3.624l-8.064-4.652
				l-1.132,1.964l8.552,4.936c-0.924,3.028-2.212,6.168-4.064,9.412c-1.084,1.904-0.416,3.936,0.72,5.156
				c0.436,0.796,1.968,3.744,3.456,7.852l-8.668,4.66l1.072,1.996l8.332-4.48c0.36,1.124,0.704,2.296,1.016,3.532l-10.396,5.584
				l1.072,1.996l9.836-5.284c0.252,1.22,0.46,2.468,0.616,3.748l-11.496,6.176l1.072,1.996l10.644-5.72
				c0.084,1.344,0.096,2.7,0.028,4.064l-11.712,6.292L257.896,189.505z M14.592,151.373l14.148,15.132
				c-2.972,0.036-7.052,0.088-11.084,0.14C16.316,161.645,15.272,156.553,14.592,151.373z"/>
			<path d="M70.952,161.209c-0.9,8.28-2.432,16.42-4.592,24.46c-0.38,1.412,1.808,2.012,2.188,0.604
				c2.216-8.24,3.756-16.58,4.676-25.064C73.376,159.761,71.108,159.769,70.952,161.209z"/>
			<path d="M46.772,121.545c-3.884,0-7.04,3.16-7.04,7.04c0,3.884,3.156,7.04,7.04,7.04c3.884,0,7.04-3.16,7.04-7.04
				C53.808,124.705,50.652,121.545,46.772,121.545z M46.772,133.357c-2.632,0-4.772-2.14-4.772-4.772
				c0-2.632,2.14-4.768,4.772-4.768c2.632,0,4.772,2.14,4.772,4.768C51.544,131.213,49.404,133.357,46.772,133.357z"/>
			<path d="M107.084,117.049c0-5.98-4.864-10.844-10.844-10.844v2.268c4.732,0,8.58,3.848,8.58,8.576
				c0,4.728-3.848,8.576-8.58,8.576v2.268c4.732,0,8.58,3.848,8.58,8.58c0,4.728-3.848,8.576-8.58,8.576v2.268
				c4.732,0,8.58,3.848,8.58,8.576c0,4.732-3.848,8.58-8.58,8.58v2.268c4.732,0,8.58,3.848,8.58,8.576
				c0,4.728-3.848,8.576-8.58,8.576v2.268c5.98,0,10.844-4.864,10.844-10.844c0-4.276-2.508-7.948-6.108-9.712
				c3.604-1.764,6.108-5.436,6.108-9.712s-2.508-7.944-6.108-9.712c3.604-1.764,6.108-5.436,6.108-9.712s-2.508-7.948-6.108-9.712
				C104.576,124.997,107.084,121.325,107.084,117.049z"/>
			<path d="M123.932,126.861c0-5.98-4.864-10.844-10.844-10.844v2.268c4.732,0,8.58,3.848,8.58,8.576
				c0,4.728-3.848,8.576-8.58,8.576v2.268c4.732,0,8.58,3.848,8.58,8.58c0,4.728-3.848,8.576-8.58,8.576v2.268
				c4.732,0,8.58,3.848,8.58,8.576c0,4.732-3.848,8.58-8.58,8.58v2.268c5.98,0,10.844-4.868,10.844-10.848
				c0-4.276-2.508-7.944-6.108-9.712c3.604-1.764,6.108-5.436,6.108-9.712s-2.508-7.948-6.108-9.712
				C121.424,134.809,123.932,131.137,123.932,126.861z"/>
			<path d="M140.256,136.473c0-5.98-4.864-10.848-10.844-10.848v2.268c4.732,0,8.58,3.848,8.58,8.58c0,4.728-3.848,8.576-8.58,8.576
				v2.268c4.732,0,8.58,3.848,8.58,8.576c0,4.732-3.848,8.58-8.58,8.58v2.268c5.98,0,10.844-4.868,10.844-10.848
				c0-4.276-2.508-7.944-6.108-9.712C137.748,144.421,140.256,140.749,140.256,136.473z"/>
		</g>
	</g>
</g>
</svg>