<?xml version="1.0" encoding="iso-8859-1"?>
<!-- Uploaded to: SVG Repo, www.svgrepo.com, Generator: SVG Repo Mixer Tools -->
<!DOCTYPE svg PUBLIC "-//W3C//DTD SVG 1.1//EN" "http://www.w3.org/Graphics/SVG/1.1/DTD/svg11.dtd">
<svg fill="#000000" version="1.1" id="Capa_1" xmlns="http://www.w3.org/2000/svg" xmlns:xlink="http://www.w3.org/1999/xlink" 
	 width="800px" height="800px" viewBox="0 0 94.379 94.378"
	 xml:space="preserve">
<g>
	<g>
		<path d="M94.185,13.322c-0.473-1.006-1.677-1.438-2.683-0.958l-5.093,2.404l-2.717-5.75l5.099-2.41
			c1.006-0.474,1.434-1.677,0.958-2.681c-0.479-1.01-1.68-1.438-2.687-0.964l-5.304,2.509c-1.171-1.194-2.995-1.598-4.597-0.845
			l-7.49,3.537c-1.448,0.683-2.926,6.774-3.639,10.128c-8.195,2.368-19.417,6.492-22.143,17.128
			c-1.647,6.536-1.033,12.164,1.742,15.86c2.33,3.11,5.975,4.784,10.826,4.958c3.121,0.223,6.734-0.995,10.567-2.286
			c4.634-1.574,9.425-3.186,12.388-1.663c1.39,0.767,1.92,2.554,2.105,3.542c0.308,1.612,0.137,3.385-0.336,4.9
			c-2.412-1.69-5.359-2.539-8.863-2.539c-4.884,0-8.658,1.465-11.338,4.404c-2.687,2.937-4.024,7.016-4.024,12.248
			c0,3.36,0.623,6.321,1.862,8.863c1.245,2.547,3.024,4.5,5.335,5.859c2.313,1.358,4.979,2.039,7.994,2.039
			c4.818,0,8.579-1.472,11.282-4.428c2.704-2.957,4.053-7.067,4.053-12.337c0-4.497-1.123-8.124-3.241-10.992
			c1.283-2.502,1.807-5.77,1.242-8.771c-0.555-2.908-2.033-5.16-4.165-6.348c-4.534-2.337-10.146-0.438-15.581,1.399
			c-3.285,1.109-6.673,2.256-9.055,2.088c-3.642-0.141-6.256-1.263-7.828-3.357c-2.026-2.703-2.404-7.128-1.056-12.448
			c2.135-8.326,10.943-11.84,20.218-14.498c3.228,1.854,8.706,4.769,10.105,4.112l7.488-3.54c1.561-0.732,2.412-2.344,2.278-3.975
			l5.336-2.522C94.226,15.529,94.664,14.323,94.185,13.322z M72.266,86.013c-5.5,0-8.251-3.723-8.251-11.17
			c0-3.556,0.65-6.286,1.937-8.192c1.294-1.906,3.382-2.854,6.256-2.854c5.482,0,8.228,3.683,8.228,11.051
			C80.428,82.291,77.71,86.013,72.266,86.013z"/>
		<path d="M14.753,58.195c-4.588,0-8.189,1.509-10.818,4.521C1.314,65.73,0,69.871,0,75.138c0,5.129,1.415,9.16,4.243,12.087
			c2.829,2.926,6.749,4.384,11.764,4.384c2.197,0,4.153-0.168,5.859-0.493c1.711-0.332,3.403-0.894,5.075-1.69v-5.568
			c-1.885,0.836-3.651,1.435-5.295,1.794c-1.643,0.362-3.417,0.54-5.32,0.54c-2.897,0-5.144-0.838-6.735-2.521
			c-1.595-1.684-2.442-4.086-2.541-7.218h21.493V72.75c0-4.528-1.241-8.084-3.705-10.671S19.013,58.195,14.753,58.195z
			 M7.173,71.494c0.251-2.643,1.033-4.658,2.347-6.037c1.314-1.379,3.06-2.067,5.233-2.067c2.18,0,3.889,0.685,5.133,2.054
			c1.244,1.369,1.886,3.385,1.923,6.051H7.173z"/>
		<path d="M47.027,63.91c1.882,0,4.277,0.564,7.173,1.693l2.066-5.513c-2.717-1.259-5.778-1.896-9.183-1.896
			c-5.015,0-8.85,1.458-11.499,4.377c-2.655,2.915-3.983,7.084-3.983,12.508c0,5.325,1.265,9.411,3.806,12.262
			c2.539,2.847,6.244,4.268,11.122,4.268c1.983,0,3.672-0.158,5.06-0.466c1.386-0.312,2.7-0.825,3.922-1.543v-5.979
			c-2.721,1.519-5.61,2.275-8.663,2.275c-2.68,0-4.716-0.91-6.104-2.728s-2.089-4.534-2.089-8.148
			C38.655,67.616,41.447,63.91,47.027,63.91z"/>
	</g>
</g>
</svg>