<?xml version="1.0" encoding="iso-8859-1"?>
<!-- Uploaded to: SVG Repo, www.svgrepo.com, Generator: SVG Repo Mixer Tools -->
<svg version="1.1" id="Layer_1" xmlns="http://www.w3.org/2000/svg" xmlns:xlink="http://www.w3.org/1999/xlink" 
	 viewBox="0 0 512 512" xml:space="preserve">
<g>
	<path style="fill:#1D1D1B;" d="M256,336.163c-44.022,0-79.837,35.814-79.837,79.837v15.837h159.674V416
		C335.837,371.978,300.022,336.163,256,336.163z M320.163,416.163H191.837V416c0-35.38,28.783-64.163,64.163-64.163
		S320.162,380.62,320.162,416v0.163H320.163z"/>
	<rect x="223.998" y="384.162" style="fill:#1D1D1B;" width="64.001" height="15.674"/>
	<rect x="128.002" y="400.159" style="fill:#1D1D1B;" width="39.999" height="15.674"/>
	<rect x="343.996" y="400.159" style="fill:#1D1D1B;" width="39.999" height="15.674"/>
	<path style="fill:#1D1D1B;" d="M407.837,496.163v-496H104.163v496.001H0v15.674h512v-15.674H407.837V496.163z M288.163,496.163
		h-64.327v-40.326h64.327V496.163z M392.163,496.163h-64.327v-56.164h-15.674v56.164h-8.326v-56h-95.674v56h-8.326v-56.164h-15.674
		v56.164h-64.327V15.836h272.326v480.327H392.163z"/>
	<rect x="128.002" y="32.163" style="fill:#1D1D1B;" width="256.004" height="15.674"/>
	<path style="fill:#1D1D1B;" d="M183.837,135.837V64.162h-47.674v71.674h47.674V135.837z M151.837,79.836h16.327v40.326h-16.327
		V79.836z"/>
	<path style="fill:#1D1D1B;" d="M247.837,135.837V64.162h-47.673v71.674h47.673V135.837z M215.837,79.836h16.327v40.326h-16.327
		V79.836z"/>
	<path style="fill:#1D1D1B;" d="M311.837,135.837V64.162h-47.674v71.674h47.674V135.837z M279.837,79.836h16.327v40.326h-16.327
		V79.836z"/>
	<path style="fill:#1D1D1B;" d="M375.837,135.837V64.162h-47.674v71.674h47.674V135.837z M343.837,79.836h16.327v40.326h-16.327
		V79.836z"/>
	<rect x="128.002" y="152.16" style="fill:#1D1D1B;" width="256.004" height="15.674"/>
	<path style="fill:#1D1D1B;" d="M183.837,255.836v-71.674h-47.674v71.674H183.837z M151.837,199.837h16.327v40.326h-16.327V199.837z
		"/>
	<path style="fill:#1D1D1B;" d="M247.837,255.836v-71.674h-47.673v71.674H247.837z M215.837,199.837h16.327v40.326h-16.327V199.837z
		"/>
	<path style="fill:#1D1D1B;" d="M311.837,255.836v-71.674h-47.674v71.674H311.837z M279.837,199.837h16.327v40.326h-16.327V199.837z
		"/>
	<path style="fill:#1D1D1B;" d="M375.837,255.836v-71.674h-47.674v71.674H375.837z M343.837,199.837h16.327v40.326h-16.327V199.837z
		"/>
	<rect x="128.002" y="272.157" style="fill:#1D1D1B;" width="256.004" height="15.674"/>
	<polygon style="fill:#1D1D1B;" points="375.837,304.162 136.164,304.162 136.164,383.837 176,383.837 176,368.163 151.837,368.163 
		151.837,319.836 360.164,319.836 360.164,368.163 336,368.163 336,383.837 375.837,383.837 	"/>
	
		<rect x="164.677" y="336.161" transform="matrix(-0.7071 0.7071 -0.7071 -0.7071 543.6785 462.7961)" style="fill:#1D1D1B;" width="22.627" height="15.674"/>
	
		<rect x="324.676" y="336.16" transform="matrix(-0.7071 0.7071 -0.7071 -0.7071 816.8118 349.6582)" style="fill:#1D1D1B;" width="22.627" height="15.674"/>
</g>
</svg>