<?xml version="1.0" encoding="iso-8859-1"?>
<!-- Uploaded to: SVG Repo, www.svgrepo.com, Generator: SVG Repo Mixer Tools -->
<svg fill="#000000" height="800px" width="800px" version="1.1" id="Layer_1" xmlns="http://www.w3.org/2000/svg" xmlns:xlink="http://www.w3.org/1999/xlink" 
	 viewBox="0 0 480 480" xml:space="preserve">
<g>
	<g>
		<path d="M296,0h-32c-4.424,0-8,3.576-8,8v24h-32V8c0-4.424-3.576-8-8-8h-32c-4.424,0-8,3.576-8,8v96c0,4.424,3.576,8,8,8h32
			c4.424,0,8-3.576,8-8V80h32v24c0,4.424,3.576,8,8,8h32c4.424,0,8-3.576,8-8V8C304,3.576,300.424,0,296,0z M288,96h-16V72
			c0-4.424-3.576-8-8-8h-48c-4.424,0-8,3.576-8,8v24h-16V16h16v24c0,4.424,3.576,8,8,8h48c4.424,0,8-3.576,8-8V16h16V96z"/>
	</g>
</g>
<g>
	<g>
		<path d="M296,136H184c-4.424,0-8,3.576-8,8v80v64c0,4.424,3.576,8,8,8h112c4.424,0,8-3.576,8-8v-64v-80
			C304,139.576,300.424,136,296,136z M288,280h-96v-48h96V280z M288,216h-96v-64h96V216z"/>
	</g>
</g>
<g>
	<g>
		<path d="M104,328H48c-4.424,0-8,3.576-8,8v40v56c0,4.424,3.576,8,8,8h56c4.424,0,8-3.576,8-8v-56v-40
			C112,331.576,108.424,328,104,328z M96,424H56v-40h40V424z M96,368H56v-24h40V368z"/>
	</g>
</g>
<g>
	<g>
		<path d="M432,328h-56c-4.424,0-8,3.576-8,8v40v56c0,4.424,3.576,8,8,8h56c4.424,0,8-3.576,8-8v-56v-40
			C440,331.576,436.424,328,432,328z M424,424h-40v-40h40V424z M424,368h-40v-24h40V368z"/>
	</g>
</g>
<g>
	<g>
		<path d="M472,88c-4.424,0-8,3.576-8,8v32h-32v-27.456C444.552,95.592,453.336,78.12,453.336,56c0-26.224-12.328-46-28.672-46
			S396,29.776,396,56c0,21.336,8.16,38.4,20,44.024V128h-32V96c0-4.424-3.576-8-8-8s-8,3.576-8,8v32h-24V80c0-4.424-3.576-8-8-8h-8
			c-4.424,0-8,3.576-8,8s3.576,8,8,8v48v48v88v32v160h-32V360h8c4.424,0,8-3.576,8-8v-32c0-4.424-3.576-8-8-8H176
			c-4.424,0-8,3.576-8,8v32c0,4.424,3.576,8,8,8h8v104h-32V304v-32v-88v-48V88c4.424,0,8-3.576,8-8s-3.576-8-8-8h-8
			c-4.424,0-8,3.576-8,8v48h-24V96c0-4.424-3.576-8-8-8s-8,3.576-8,8v32H64v-27.976C75.84,94.4,84,77.336,84,56
			c0-26.224-12.32-46-28.664-46S26.664,29.776,26.664,56c0,22.12,8.784,39.6,21.336,44.544V128H16V96c0-4.424-3.576-8-8-8
			s-8,3.576-8,8v40v48v88v32v168c0,4.424,3.576,8,8,8h136h48h48h48h48h136c4.424,0,8-3.576,8-8V304v-32v-88v-48V96
			C480,91.576,476.424,88,472,88z M42.664,56c0-18.032,7.624-30,12.672-30C60.376,26,68,37.968,68,56s-7.624,30-12.664,30
			C50.288,86,42.664,74.032,42.664,56z M16,192h32v72H16V192z M136,464H16V312h120V464z M136,296H16v-16h40h80V296z M136,264H64v-72
			h72V264z M136,176H56H16v-32h120V176z M232,464h-32V360h32V464z M280,464h-32V360h32V464z M240,344h-48h-8v-16h112v16h-8H240z
			 M412,56c0-18.032,7.624-30,12.664-30c5.048,0,12.672,11.968,12.672,30s-7.624,30-12.672,30C419.624,86,412,74.032,412,56z
			 M344,192h72v72h-72V192z M464,464H344V312h120V464z M464,296H344v-16h80h40V296z M464,264h-32v-72h32V264z M464,176h-40h-80v-32
			h120V176z"/>
	</g>
</g>
</svg>