<?xml version="1.0" encoding="iso-8859-1"?>
<!-- Uploaded to: SVG Repo, www.svgrepo.com, Generator: SVG Repo Mixer Tools -->
<svg fill="#000000" height="800px" width="800px" version="1.1" id="Layer_1" xmlns="http://www.w3.org/2000/svg" xmlns:xlink="http://www.w3.org/1999/xlink" 
	 viewBox="0 0 282.368 282.368" xml:space="preserve">
<g>
	<g>
		<g>
			<path d="M263.704,131.288h-17.416c0.06-0.308,0.188-0.596,0.188-0.92v-2.18c0-0.44-0.14-0.836-0.252-1.244
				c2.052-0.676,3.56-2.548,3.56-4.824v-2.368c0-2.836-2.308-5.144-5.144-5.144h-1.868c0.072-1.268,0.164-2.532,0.164-3.82
				c0-36.552-26.348-67.02-61.04-73.528c0.556-0.644,0.928-1.456,0.928-2.372v-3.332c0-2.028-1.652-3.676-3.68-3.676H174.8
				c2.428-2.052,4.004-5.08,4.004-8.5c0-6.164-5.012-11.176-11.172-11.176c-6.164,0-11.176,5.012-11.176,11.176
				c0,3.42,1.576,6.448,4.004,8.5h-3.452c-2.028,0-3.68,1.652-3.68,3.676v3.332c0,0.916,0.372,1.728,0.928,2.372
				c-34.692,6.508-61.04,36.976-61.04,73.528c0,1.288,0.092,2.552,0.164,3.82h-1.868c-2.836,0-5.14,2.308-5.14,5.144v2.368
				c0,2.276,1.508,4.144,3.556,4.824c-0.112,0.408-0.252,0.804-0.252,1.244v2.18c0,0.328,0.124,0.612,0.188,0.92H72.448
				l-6.044,40.524h-9.852c-0.616-32.232-16.228-58.264-35.68-59.888c-0.396-5.42-4.88-9.72-10.4-9.72
				C4.7,102.204,0,106.904,0,112.68s4.7,10.476,10.472,10.476c4.66,0,8.572-3.076,9.928-7.292
				c17.88,1.312,32.204,26.756,32.204,57.932v1.984h13.208l-11.86,79.528l2.908-0.752c2.9-0.752,6.204-0.788,9.528-0.432
				c-0.036,0.424-0.116,0.832-0.116,1.264c0,10.352,8.42,18.776,18.776,18.776c9.712,0,17.628-7.436,18.588-16.892
				c2.484-1.244,4.916-2.348,7.888-2.584c2.512-0.184,4.92,0.76,7.464,1.776c3.184,1.272,6.488,2.584,10.408,1.868
				c3.748-0.692,6.752-2.484,9.4-4.068c4.156-2.48,7.432-4.432,12.72-2.52c1.436,0.52,2.744,1.156,4.008,1.768
				c3.452,1.668,7.024,3.396,12.008,2.4c1.624-0.324,3.064-0.916,4.456-1.492c1.352-0.556,2.628-1.084,3.956-1.308
				c3.812-0.652,7.168,0.404,11.352,1.712c0.792,0.248,1.556,0.52,2.308,0.788c3.292,1.172,6.7,2.388,11.028,1.232
				c2.124-0.568,3.728-1.624,5.276-2.648c1.004-0.664,1.952-1.288,2.992-1.74c3.352-1.448,6.576-1.496,11.132-0.156
				c1.108,0.328,2.212,0.792,3.32,1.252c1.828,0.764,3.72,1.552,5.76,1.872c1.188,0.184,2.244,0.216,3.244,0.188
				c0.128,10.244,8.476,18.548,18.752,18.548c10.224,0,18.528-8.22,18.74-18.392c3.076,1.3,6.264,2.116,9.66,1.436
				c0.34-0.068,0.672-0.164,1.192-0.316l1.668-0.484L263.704,131.288z M10.468,119.184c-3.584,0-6.504-2.916-6.504-6.504
				s2.916-6.504,6.504-6.504c3.588,0,6.508,2.916,6.508,6.504S14.056,119.184,10.468,119.184z M160.42,19.38
				c0-3.976,3.236-7.208,7.208-7.208s7.204,3.232,7.204,7.208c0,3.972-3.232,7.204-7.204,7.204
				C163.656,26.584,160.42,23.352,160.42,19.38z M157.296,31.848h21.556v2.748h-21.556V31.848z M168.076,39.896
				c39.092,0,70.892,31.8,70.892,70.892c0,1.284-0.044,2.556-0.116,3.82H97.3c-0.072-1.264-0.116-2.536-0.116-3.82
				C97.184,71.7,128.984,39.896,168.076,39.896z M90.336,119.752h0.004c0-0.648,0.528-1.172,1.172-1.172h2.1h148.916h2.104
				c0.648,0,1.176,0.528,1.176,1.172v2.368c0,0.636-0.54,1.172-1.176,1.172h-3.056H94.564h-3.056c-0.644,0-1.172-0.528-1.172-1.172
				V119.752z M118.628,128.404l-3.436,2.88h-2.308l1.364-1.144l-1.46-1.74l-3.436,2.88h-2.308l1.364-1.144l-1.46-1.74l-3.436,2.88
				h-2.308l1.364-1.144l-1.46-1.74l-3.436,2.88h-3.104c-0.504,0.016-0.924-0.404-0.924-0.904v-2.18c0-0.5,0.42-0.924,0.92-0.924
				H241.58c0.5,0,0.92,0.424,0.92,0.924v2.18c0,0.5-0.42,0.92-0.92,0.92H118.724l1.364-1.144L118.628,128.404z M85.044,270.192
				c-8.164,0-14.808-6.644-14.808-14.808c0-0.232,0.04-0.452,0.052-0.68c1.004,0.188,1.996,0.396,2.964,0.628
				c0,0.016-0.004,0.036-0.004,0.052c0,6.504,5.292,11.8,11.796,11.8c4.644,0,8.616-2.716,10.528-6.628
				c1.284-0.276,2.484-0.704,3.648-1.196C97.476,265.592,91.82,270.192,85.044,270.192z M75.564,255.936
				c4.404,1.224,8.1,2.68,9.9,3.444c2.604,1.1,4.892,1.536,6.96,1.536c0.112,0,0.212-0.028,0.324-0.032
				c-1.72,2.424-4.512,4.032-7.708,4.032C79.976,264.916,75.856,260.932,75.564,255.936z M251.104,270.192
				c-8.164,0-14.808-6.644-14.808-14.808c0-0.144,0.036-0.28,0.044-0.42c1.108-0.332,2.136-0.744,3.12-1.2
				c-0.084,0.532-0.152,1.068-0.152,1.62c0,6.504,5.292,11.8,11.8,11.8c6.504,0,11.796-5.296,11.796-11.8
				c0-1.152-0.228-2.236-0.548-3.284c0.888,0.428,1.784,0.88,2.696,1.352c0.24,0.124,0.484,0.248,0.724,0.372
				c0.068,0.516,0.136,1.028,0.136,1.56C265.912,263.552,259.268,270.192,251.104,270.192z M241.568,255.384
				c0-0.984,0.2-1.908,0.488-2.792c0.644-0.296,1.248-0.6,1.968-0.872c4.472-1.676,8.552-2.224,12.452-1.664
				c0.988,0.14,1.984,0.448,2.988,0.816c0.74,1.344,1.172,2.872,1.172,4.512c0,5.256-4.276,9.532-9.532,9.532
				C245.848,264.916,241.568,260.64,241.568,255.384z M266.876,249.928c-3.148-1.628-6.408-3.312-9.836-3.8
				c-4.58-0.644-9.292-0.036-14.404,1.876c-1.364,0.508-2.564,1.084-3.716,1.64c-1.544,0.744-2.932,1.38-4.484,1.74l-4.324-63.672
				l-2.264,0.152l4.332,63.8c-0.756,0.016-1.548-0.012-2.452-0.156c-1.576-0.248-3.168-0.912-4.852-1.612
				c-1.244-0.52-2.484-1.032-3.732-1.4c-5.452-1.6-9.592-1.512-13.828,0.324c-1.36,0.588-2.5,1.34-3.6,2.068
				c-1.344,0.888-2.608,1.728-4.112,2.124c-0.516,0.14-1,0.164-1.488,0.216v-65.944h-2.264v65.924
				c-1.628-0.208-3.208-0.724-4.916-1.332c-0.8-0.284-1.612-0.576-2.744-0.928c-4.204-1.312-8.18-2.548-12.916-1.748
				c-1.764,0.3-3.312,0.94-4.804,1.556c-1.272,0.524-2.476,1.02-3.72,1.268c-0.844,0.168-1.62,0.208-2.372,0.188v-64.428h-2.264
				v64.104c-1.608-0.404-3.148-1.116-4.872-1.952c-1.384-0.668-2.812-1.352-4.384-1.924c-7.048-2.556-11.652,0.188-16.1,2.844
				c-2.152,1.284-4.22,2.476-6.592,3.176v-66.508h-2.264v66.952c-2.52,0.22-4.912-0.684-7.436-1.696
				c-2.852-1.144-5.816-2.34-9.252-2.052c-4.112,0.324-7.388,1.984-10.272,3.448c-2.216,1.124-4.204,2.128-6.368,2.552
				c-0.04,0-0.084,0.008-0.124,0.008c0,0.004-0.004,0.012-0.004,0.016c-0.492,0.092-0.996,0.152-1.512,0.176l4.384-69.068
				l-2.264-0.144l-4.384,69.064c-1.124-0.172-2.316-0.492-3.644-1.056c-3.76-1.592-11.268-4.392-19.028-5.4
				c-2.884-0.316-3.884-0.4-5.368-0.4c-1.316,0-2.62,0.076-3.892,0.24l17.136-114.908h18.7h147.016h18.7l17.624,118.176
				C274.336,253.784,270.704,251.908,266.876,249.928z"/>
			<path d="M112.34,109.108c-1.156-13.992,3.06-28.424,11.564-39.608l-3.156-2.4c-9.092,11.952-13.596,27.384-12.36,42.336
				L112.34,109.108z"/>
			<path d="M139.58,55.328l-2.08-3.384c-4.408,2.708-8.448,5.948-12.016,9.64l2.852,2.756
				C131.672,60.892,135.452,57.856,139.58,55.328z"/>
		</g>
	</g>
</g>
</svg>