<?xml version="1.0" encoding="iso-8859-1"?>
<!-- Uploaded to: SVG Repo, www.svgrepo.com, Generator: SVG Repo Mixer Tools -->
<svg fill="#000000" height="800px" width="800px" version="1.1" id="Layer_1" xmlns="http://www.w3.org/2000/svg" xmlns:xlink="http://www.w3.org/1999/xlink" 
	 viewBox="0 0 290.788 290.788" xml:space="preserve">
<g>
	<g>
		<g>
			<path d="M246.596,74.048h-44.44l-15.248-35.62c-0.16-0.392-0.296-0.76-0.416-1.1c-0.592-1.616-1.32-3.64-4.212-2.772
				c-1.008,0.3-1.656,0.796-1.992,1.508c-0.572,1.204-0.012,2.532,0.636,4.068l12.884,33.916h-7.944l-7.728-28.228
				c-0.104-0.404-0.188-0.784-0.26-1.136c-0.264-1.24-0.496-2.312-1.44-2.916c-0.616-0.392-1.412-0.472-2.408-0.244
				c-1.016,0.232-1.712,0.672-2.116,1.352c-0.692,1.148-0.324,2.512,0.104,4.096l6.2,27.072H44.196
				C19.824,74.044,0,93.868,0,118.236v57.416c0,24.368,19.824,44.192,44.196,44.192h167.4l3.376,14.744l-0.02,0.084l0.044,0.008
				l4.476,19.544l0.008,0.032c0.436,1.668,2.12,2.184,4.124,2.184c1.324,0,2.788-0.224,4.128-0.492l0.008,0.02l0.176-0.04
				c0.176-0.04,0.356-0.08,0.54-0.124l1.176-0.268c0.04-0.008,0.08-0.016,0.112-0.024l0.092-0.02l-0.008-0.032
				c1.672-0.464,3.364-1.16,4.132-2.42c0.408-0.668,0.512-1.44,0.304-2.24l-8.48-30.964h20.808c0.86,0,1.704-0.068,2.552-0.128
				l7.828,20.6l0.012,0.032c0.568,1.368,1.964,1.828,3.64,1.828c1.516,0,3.256-0.376,4.816-0.8l0.008,0.02l0.176-0.052
				c0.148-0.044,0.296-0.088,0.452-0.136l1.424-0.428l-0.012-0.032c1.628-0.58,3.252-1.384,3.88-2.696
				c0.34-0.712,0.348-1.5,0.024-2.28l-8.232-19.22c16.168-6.572,27.628-22.388,27.628-40.888V118.24
				C290.792,93.872,270.964,74.048,246.596,74.048z M183.24,39.792l-0.228-0.54c-0.324-0.768-0.812-1.928-0.676-2.22
				c0.02-0.04,0.16-0.172,0.588-0.304c0.848-0.252,0.84-0.244,1.428,1.376c0.136,0.368,0.28,0.768,0.46,1.2l72.472,169.284
				l-10.468-1.38L183.24,39.792z M219.748,112.156h-1.276L207.164,85.74h37.228c19.004,0,34.468,15.46,34.468,34.468v53.488
				c0,14.048-8.504,26.064-20.588,31.424l-18.888-44.112v-29.212C239.384,120.968,230.576,112.156,219.748,112.156z
				 M237.116,155.703l-17.676-41.279h0.304c9.58,0,17.372,7.792,17.372,17.368V155.703z M209.144,114.424L231.9,174.32
				c-3.136,3.132-7.38,5.156-12.152,5.156h-5.016l-17.812-65.052H209.144z M196.3,112.152l-7.232-26.416h9.184l10.032,26.416H196.3z
				 M219.748,181.748c5.028,0,9.564-1.968,13.04-5.092l11.96,31.484c-0.12,0.004-0.24,0.02-0.36,0.02h-21.8l-7.232-26.412H219.748z
				 M195.316,78.016l2.072,5.452h-8.944l-1.492-5.452H195.316z M44.196,215.88v0.004c-22.18,0-40.228-18.044-40.228-40.224v-57.42
				c0-22.18,18.048-40.224,40.228-40.224H179.12l1.248,5.452H46.404c-20.256,0-36.736,16.48-36.736,36.736v53.488
				c0,20.256,16.476,36.736,36.736,36.736H209.44l1.248,5.452H44.196z M177.328,159.752H111.26c-6.98,0-12.66,5.68-12.66,12.66
				v7.064H71.044c-9.58,0-17.372-7.792-17.372-17.368v-5.268c1.864,0.352,3.784,0.556,5.752,0.556
				c17.088,0,30.992-13.904,30.992-30.992c0-4.248-0.86-8.296-2.412-11.984h12.752v25.848c0,6.496,5.284,11.78,11.78,11.78h35.636
				c6.492,0,11.776-5.284,11.776-11.78v-25.844h27.508l14.896,65.056h-12.364v-7.064
				C189.988,165.432,184.308,159.752,177.328,159.752z M163.472,170.836c11.288,1.956,18.28,5.48,18.28,8.764
				c0,3.224-6.748,6.676-17.68,8.652c0.648-1.408,1.024-2.948,0.44-4.484c-0.452-1.196-1.332-1.944-2.108-2.604
				c-0.608-0.516-1.136-0.964-1.416-1.556c-0.62-1.32,0.036-3.188,0.68-4.668c0.596-1.372,1.232-2.728,1.884-4.064L163.472,170.836z
				 M159.592,174.04c-0.836,1.92-1.664,4.4-0.652,6.54c0.488,1.036,1.288,1.716,2,2.316c0.648,0.552,1.208,1.028,1.456,1.68
				c0.48,1.26-0.296,2.82-1.136,4.14c-3.072,0.456-6.416,0.792-10,0.988V169.5c3.572,0.196,6.912,0.532,9.976,0.984
				C160.672,171.656,160.116,172.836,159.592,174.04z M184.016,179.6c0-7.192-15.84-11.444-32.756-12.372v-3.508h26.072
				c4.792,0,8.692,3.9,8.692,8.692v13.004c0,4.792-3.9,8.692-8.692,8.692H151.26v-2.136
				C168.18,191.048,184.016,186.792,184.016,179.6z M148.992,163.724V193.7h-9.616v-29.976H148.992z M132.344,189.324
				c-4.176-0.408-7.948-1.02-11.244-1.772l0.304-0.212c-0.392-0.544,0.024-1.568,0.604-2.244c0.272-0.316,0.58-0.608,0.88-0.9
				c0.7-0.676,1.416-1.372,1.896-2.34c0.804-1.632,0.604-3.324,0.412-4.96c-0.096-0.828-0.192-1.612-0.148-2.348
				c0.092-1.556,0.88-3.02,2.064-4.028c2.3-0.344,4.748-0.632,7.344-0.836c-2.096,2.584-2.84,6.288-1.62,9.416
				c0.2,0.512,0.448,1.016,0.7,1.52c0.532,1.084,1.04,2.104,0.896,3.056c-0.096,0.66-0.508,1.352-0.94,2.088
				C132.872,186.812,132.232,187.988,132.344,189.324z M122.944,177.164c0.16,1.368,0.316,2.664-0.192,3.688
				c-0.304,0.616-0.856,1.148-1.44,1.712c-0.348,0.34-0.7,0.68-1.016,1.048c-0.808,0.94-1.336,2.216-1.26,3.44
				c-7.652-2.012-12.196-4.808-12.196-7.452c0-3.148,6.444-6.516,16.932-8.516c-0.556,1.028-0.924,2.16-0.992,3.332
				C122.724,175.352,122.832,176.272,122.944,177.164z M134.608,189.416c-0.216-0.656,0.168-1.38,0.828-2.496
				c0.5-0.848,1.072-1.812,1.232-2.908c0.248-1.656-0.468-3.112-1.104-4.396c-0.22-0.444-0.44-0.888-0.616-1.34
				c-1.068-2.736-0.072-6.18,2.168-8.076v19.488c-0.94-0.052-1.868-0.112-2.776-0.184L134.608,189.416z M137.112,167.244
				c-3.612,0.204-7.172,0.556-10.536,1.06l-0.108-0.172c-0.1,0.064-0.176,0.156-0.272,0.228c-12.132,1.868-21.62,5.68-21.62,11.244
				c0,7.16,15.704,11.408,32.54,12.36v2.148h-25.852c-4.792,0-8.692-3.9-8.692-8.692v-13.004c0-4.792,3.9-8.692,8.692-8.692h25.852
				v3.52H137.112z M32.4,126.404c0-14.9,12.12-27.024,27.024-27.024s27.024,12.124,27.024,27.024c0,14.9-12.12,27.024-27.024,27.024
				S32.4,141.304,32.4,126.404z M104.724,140.272v-35.636c0-4.308,3.504-7.812,7.812-7.812h35.636c4.304,0,7.808,3.504,7.808,7.812
				v35.636c0,4.308-3.504,7.812-7.808,7.812h-35.636C108.228,148.08,104.724,144.576,104.724,140.272z M159.948,112.152v-7.52
				c0-6.496-5.284-11.78-11.776-11.78h-35.636c-6.496,0-11.78,5.284-11.78,11.78v7.52h-13.84c-5.168-9.932-15.54-16.74-27.492-16.74
				c-17.088,0-30.992,13.904-30.992,30.992c0,14.312,9.768,26.356,22.976,29.904v5.8c0,10.828,8.808,19.64,19.636,19.64H98.6v3.668
				c0,6.98,5.68,12.66,12.66,12.66h66.072c6.98,0,12.66-5.68,12.66-12.66v-3.668h12.884l6.048,26.412H46.404
				c-19.004,0-34.468-15.46-34.468-34.468v-53.484c0-19.004,15.464-34.468,34.468-34.468h134.484l6.048,26.412H159.948z
				 M174.348,46.936l-0.148-0.552c-0.244-0.9-0.544-2.016-0.352-2.336c0.028-0.044,0.152-0.192,0.676-0.312
				c0.516-0.116,0.676-0.056,0.684-0.056c0.156,0.136,0.332,0.944,0.444,1.48c0.084,0.38,0.172,0.792,0.288,1.244l47.572,173.728
				l-10.164-2.8L174.348,46.936z M213.924,219.848l10.184,2.804l0.048-0.168l1.408,5.14l-10.524-2.9L213.924,219.848z
				 M232.076,251.404c0.06,0.232,0.012,0.364-0.052,0.472c-0.456,0.748-2.208,1.276-3.708,1.644
				c-5.932,1.268-6.576,0.404-6.644,0.184l-2.628-11.484l11.332,2.98L232.076,251.404z M229.684,242.664l-11.212-2.948l-1.02-4.464
				l10.888,2.504L229.684,242.664z M226.264,230.172l1.396,5.1l-10.772-2.476l-1.272-5.556L226.264,230.172z M246.596,215.884
				h-21.892l-1.492-5.452h21.18c0.408,0,0.804-0.036,1.208-0.06l2.072,5.46C247.312,215.852,246.956,215.884,246.596,215.884z
				 M247.736,209.62l10.592,1.396l2.16,5.048l-10.976-1.768L247.736,209.62z M269.304,236.66c0.096,0.232,0.06,0.34,0.02,0.428
				c-0.348,0.728-2.068,1.372-3.488,1.828c-5.728,1.636-6.616,0.884-6.752,0.584l-3.22-8.48l11.78,1.76L269.304,236.66z
				 M266.596,230.328l-11.656-1.744l-1.6-4.208l11.28,1.336L266.596,230.328z M263.588,223.316l-11.156-1.328l-1.992-5.244
				l11.104,1.792L263.588,223.316z M286.82,175.656c0,16.868-10.464,31.28-25.22,37.248l-2.432-5.68
				c12.892-5.708,21.952-18.548,21.952-33.532v-53.484c0-20.256-16.476-36.736-36.736-36.736h-38.196l-2.336-5.452h42.74
				c22.18,0,40.228,18.044,40.228,40.224V175.656z"/>
			<path d="M78.396,126.404c0-10.46-8.512-18.972-18.972-18.972s-18.972,8.512-18.972,18.972c0,10.46,8.512,18.972,18.972,18.972
				S78.396,136.864,78.396,126.404z M59.424,110.272c4.412-0.004,8.412,1.784,11.328,4.664c-3.192,2.528-6.76,6.764-9.312,10.628
				c-0.008-0.168-0.012-0.38-0.02-0.532c-0.16-2.968-0.364-5.636-1.248-8.248l-0.292-0.896c-0.58-1.796-1.296-3.832-2.412-5.42
				C58.116,110.388,58.756,110.272,59.424,110.272z M56.884,142.284c-7.688-1.224-13.596-7.848-13.596-15.88
				c0-7.324,4.932-13.448,11.624-15.416c1.332,1.208,2.184,3.672,2.808,5.596l0.3,0.92c0.788,2.34,0.98,4.848,1.128,7.644
				C59.3,127.9,59.504,136.808,56.884,142.284z M61.48,129.888c2.204-4.176,6.872-10.18,10.732-13.212
				c2.072,2.712,3.352,6.06,3.352,9.732c-0.004,8.896-7.244,16.136-16.14,16.136c-0.044,0-0.084-0.012-0.132-0.012
				C60.904,138.68,61.392,133.796,61.48,129.888z"/>
			<path d="M120.62,143.116h19.472c6.024,0,10.924-4.904,10.924-10.928v-19.472c0-6.024-4.904-10.928-10.924-10.928H120.62
				c-6.028,0-10.928,4.904-10.928,10.928v19.472C109.688,138.216,114.592,143.116,120.62,143.116z M111.956,112.716
				c0-4.776,3.888-8.66,8.664-8.66h19.472c4.772,0,8.66,3.884,8.66,8.66v19.472c0,4.776-3.888,8.66-8.66,8.66H120.62
				c-4.776,0-8.664-3.884-8.664-8.66V112.716z"/>
			<path d="M126.22,119.82c1.148,1.216,2.128,1.536,2.84,1.536c0.34,0,0.62-0.072,0.828-0.156c1.244-0.496,2.316-2.292,2.86-3.68
				c0.48-1.236,1.148-3.652,0.212-6c-0.7-1.748-2.216-3.196-4.268-4.084c-1.728-0.74-3.492-0.952-4.524-0.544
				c-2.38,0.952-1.98,5.096-0.604,8.54C124.268,117.192,125.208,118.752,126.22,119.82z M125.008,108.996
				c0.092-0.036,0.236-0.056,0.416-0.056c1.288,0,4.46,1.008,5.424,3.42c1.128,2.82-1.036,6.384-1.788,6.732
				c-0.404-0.012-2.096-1.268-3.392-4.5S124.688,109.244,125.008,108.996z"/>
			<path d="M125.76,136.812c0.264,0,0.5-0.036,0.7-0.116c2.38-0.952,1.98-5.096,0.604-8.54c-0.708-1.76-1.652-3.32-2.664-4.392
				c-1.7-1.796-3.032-1.636-3.668-1.38c-2.368,0.948-5.568,3.852-4.068,7.612C118,133.328,123.22,136.812,125.76,136.812z
				 M121.56,124.492c0.008,0,0.012,0,0.02,0c0.456,0,2.104,1.324,3.376,4.5c1.292,3.232,0.98,5.344,0.744,5.572
				c-0.016,0-0.036,0-0.06,0c-1.084,0-5.728-2.572-6.864-5.416C117.608,126.232,121.536,124.504,121.56,124.492z"/>
			<path d="M137.636,121.028c-0.872,5.912-0.492,8.756,1.26,9.512c0.268,0.116,0.54,0.168,0.816,0.168
				c1.648,0,3.396-1.916,4.784-3.676c1.048-1.324,1.712-4.264,0.14-8.192c-0.708-1.756-1.652-3.316-2.664-4.388
				c-1.7-1.796-3.032-1.632-3.668-1.38c-1.564,0.624-1.24,2.32-0.948,3.812C137.584,118.048,137.86,119.496,137.636,121.028z
				 M142.532,119.68c1.3,3.248,0.692,5.308,0.188,5.944c-2.052,2.6-2.876,2.796-2.88,2.852c-0.084-0.108-0.824-1.244,0.04-7.124
				c0.276-1.912-0.052-3.636-0.292-4.9c-0.076-0.388-0.168-0.88-0.2-1.212C140.028,115.548,141.428,116.908,142.532,119.68z"/>
			<path d="M246.332,111.616l0.492,0.324c0.592,0.404,1.96,1.452,1.868,2.54c-0.06,0.648-0.604,1.26-1.236,1.968
				c-0.496,0.552-0.984,1.116-1.352,1.748c-0.856,1.472-1,3.344-0.4,5.136c0.636,1.892,2.02,3.44,3.696,4.144
				c0.82,0.34,1.7,0.504,2.584,0.504c2.424,0,4.932-1.228,6.58-3.38c0.284-0.376,0.548-0.772,0.808-1.172
				c0.328-0.504,0.652-1.016,1.068-1.444c0.452-0.464,1.056-0.728,1.38-0.58c0.216,0.096,0.496,0.392,0.768,0.676
				c0.568,0.588,1.336,1.392,2.528,1.504c1.188,0.104,2.324-0.516,3.324-1.86c0.952-1.268,2.088-3.304,2.104-5.78
				c0.02-2.404-1.152-4.668-2.98-5.76c-0.456-0.272-0.944-0.472-1.44-0.664c-0.324-0.124-0.648-0.248-0.952-0.42
				c-1.224-0.696-1.864-2.472-1.4-3.876c0.076-0.22,0.168-0.432,0.26-0.648c0.216-0.5,0.456-1.068,0.552-1.744
				c0.196-1.46-0.416-3.032-1.668-4.316c-1.684-1.72-4.22-2.516-6.776-2.148c-2.032,0.296-9.088,3.464-10.872,4.772
				c-1.976,1.444-3.424,4.296-2.372,6.944C243.584,109.816,245.044,110.772,246.332,111.616z M246.944,103.432
				c1.336-0.984,7.88-4,9.604-4.252c1.684-0.244,3.292,0.252,4.344,1.328c0.628,0.644,0.956,1.372,0.88,1.952
				c-0.04,0.288-0.18,0.616-0.344,1c-0.124,0.288-0.248,0.576-0.344,0.876c-0.896,2.692,0.284,5.868,2.68,7.232
				c0.424,0.244,0.88,0.424,1.336,0.6c0.34,0.132,0.688,0.26,1.008,0.452c0.968,0.58,1.616,1.912,1.604,3.316
				c-0.008,1.324-0.556,2.78-1.54,4.096c-0.512,0.684-0.796,0.732-0.796,0.732c-0.132-0.012-0.528-0.42-0.74-0.64
				c-0.416-0.436-0.932-0.976-1.648-1.3c-1.452-0.664-3.24-0.184-4.572,1.18c-0.548,0.56-0.988,1.216-1.416,1.88
				c-0.224,0.336-0.44,0.676-0.684,0.996c-1.456,1.908-3.96,2.756-5.82,1.98c-0.92-0.384-1.728-1.316-2.1-2.428
				c-0.344-1.016-0.284-2.044,0.16-2.808c0.272-0.468,0.652-0.876,1.016-1.288c0.844-0.948,1.8-2.02,1.94-3.604
				c0.168-1.876-0.908-3.652-3.1-5.14l-0.524-0.344c-1.032-0.672-2.004-1.312-2.36-2.208
				C245.04,105.808,245.88,104.208,246.944,103.432z"/>
		</g>
	</g>
</g>
</svg>