<?xml version="1.0" encoding="iso-8859-1"?>
<!-- Uploaded to: SVG Repo, www.svgrepo.com, Generator: SVG Repo Mixer Tools -->
<svg fill="#000000" height="800px" width="800px" version="1.1" id="Layer_1" xmlns="http://www.w3.org/2000/svg" xmlns:xlink="http://www.w3.org/1999/xlink" 
	 viewBox="0 0 328.704 328.704" xml:space="preserve">
<g>
	<g>
		<g>
			<path d="M101.929,5.476c0-0.024,0.004-0.036,0.004-0.06h-2.052c-0.012,0.472-0.02,0.944-0.016,1.416h2.048
				C101.917,6.38,101.917,5.928,101.929,5.476z"/>
			<path d="M97.485,9.18c0-0.024,0.004-0.036,0.004-0.06h-2.048c-0.012,0.472-0.02,0.944-0.016,1.416h2.048
				C97.477,10.084,97.477,9.632,97.485,9.18z"/>
			<path d="M100.861,13.584c0-0.024,0.004-0.036,0.004-0.06h-2.052c-0.012,0.472-0.02,0.944-0.016,1.416h2.048
				C100.849,14.488,100.849,14.036,100.861,13.584z"/>
			<path d="M135.105,153.636c0.016-8.036-1.972-14.984-6.088-21.24l-0.6-0.92c-2.444-3.728-4.976-7.584-8.024-10.976
				c-7.94-8.832-11.348-18.748-10.716-31.212c0.196-3.8,0.168-6.784,0.136-9.936L109.797,29.2h0.076
				c3.216,0,5.832-2.616,5.832-6.216c0-3.216-2.616-5.832-5.832-5.832h-3.068L108.841,0H81.005l2.04,17.152h-2.948
				c-3.216,0-5.832,2.616-5.832,6.216c0,3.216,2.616,5.832,5.832,5.832h0.088l0.008,19.04c0.012,9.604,0.024,19.208-0.06,28.812
				c-0.044,5.244,0.012,9.472,0.06,12.976c0.216,16.26,0.216,16.26-12.048,32.276l-4.312,5.648
				c-6.124,8.068-9.072,17.236-9.004,28.028c0.264,43.608,0.276,90.068,0.036,150.636c-0.032,8.488,2.332,14.288,7.668,18.808
				l0.556,0.472h63.848l0.56-0.48c5.252-4.516,7.684-10.496,7.652-18.824C134.981,259.968,134.969,209.936,135.105,153.636z
				 M131.105,281.74c-16.34-1.296-29.416-25.392-29.416-54.908c0-29.512,13.076-53.604,29.412-54.908
				C131.025,211.232,131.025,247.48,131.105,281.74z M131.101,169.652c-17.588,1.264-31.68,26.388-31.68,57.18
				c0,30.796,14.096,55.928,31.688,57.184c0.012,4.992,0.028,9.94,0.04,14.852h-45.52v-142.34h45.496
				C131.121,160.948,131.109,165.308,131.101,169.652z M109.905,112.044c1.876,3.908,4.364,7.588,7.528,11.108
				c2.852,3.172,5.296,6.896,7.664,10.504l0.604,0.92c0.196,0.3,0.332,0.624,0.516,0.932c-2.824,1.248-5.932,1.632-9.012,0.992
				c-3.84-0.804-7.116-3.048-9.232-6.324c-2.112-3.272-2.808-7.184-1.956-11.016C106.625,116.436,107.989,114.004,109.905,112.044z
				 M104.341,4l-1.556,13.076h-15.72L85.509,4H104.341z M80.097,25.2c-1.012,0-1.832-0.824-1.832-2.216
				c0-1.012,0.82-1.832,1.832-1.832h29.776c1.012,0,1.832,0.824,1.832,2.216c0,1.008-0.82,1.832-1.832,1.832H80.097z M89.577,30.444
				h2.688l-3.296,7.048h-2.688L89.577,30.444z M84.157,36.688l-0.004-6.244h2.924L84.157,36.688z M94.769,30.444h2.688l-3.296,7.048
				h-2.688L94.769,30.444z M99.961,30.44h2.684l-3.296,7.048h-2.684L99.961,30.44z M125.445,321.924H64.557
				c-4.036-3.668-5.752-8.292-5.728-15.292c0.24-60.584,0.232-107.052-0.036-150.672c-0.064-9.884,2.62-18.256,8.2-25.604l4.3-5.636
				c7.968-10.412,11.08-14.556,12.248-20.248h17.356v-2.268H83.905c0.36-3.112,0.324-6.852,0.252-12.224
				c-0.048-3.484-0.1-7.68-0.06-12.892c0.084-9.616,0.072-19.236,0.06-28.852l-0.004-8.476h19.22v-2.268h-1.52l3.296-7.048h0.68
				v7.096h-1.02c-0.008,0.72-0.016,1.444-0.016,2.172h1.036l-0.004,36.212l0.02,3.468c0.032,3.092,0.06,6.016-0.128,9.696
				c-0.392,7.708,0.692,14.504,3.244,20.724c-2.572,2.356-4.384,5.404-5.148,8.86c-0.984,4.428-0.184,8.952,2.26,12.74
				c2.444,3.788,6.236,6.384,10.676,7.312c1.168,0.244,2.344,0.364,3.516,0.364c2.44,0,4.848-0.528,7.084-1.552
				c2.508,4.82,3.804,10.1,3.788,16.096c0,0.212,0,0.416,0,0.632H83.365V301.14h47.792c0.004,1.816,0.012,3.66,0.016,5.468
				C131.201,313.476,129.429,318.236,125.445,321.924z"/>
			<path d="M273.761,133.972c0-1.432,0.116-5.572,0.116-6.248c0-12.464-25.384-22.232-57.784-22.232
				c-32.148,0-56.392,9.556-56.392,22.232c0,0.716,0.12,4.856,0.12,6.248c0,39.308,21.9,81.292,50.14,87.256
				c2.856,20.892-2.196,79.676-2.856,82.848c-1.02,3.184-11.456,5.628-12.924,6.176c-10.128,1.848-15.056,4.568-15.056,8.316
				c0,8,23.676,10.136,37.668,10.136s37.668-2.136,37.668-10.136c0-3.732-4.872-6.44-14.9-8.288
				c-1.724-0.596-12.06-3.016-13.048-6.08c-0.652-3.216-4.776-61.42-2.512-83.056C252.061,214.884,273.761,173.104,273.761,133.972z
				 M216.093,109.492c32.172,0,53.784,9.424,53.784,18.232c0,0.98-0.308,1.968-0.832,2.952
				c-3.536-9.556-25.192-16.704-52.268-16.704c-27.08,0-48.736,7.148-52.268,16.704c-0.508-0.984-0.808-1.972-0.808-2.952
				C163.701,118.92,184.753,109.492,216.093,109.492z M267.293,133.044c-0.928,0.972-2.068,1.924-3.468,2.844
				c-10.256,4.78-27.464,8.404-47.032,8.404c-19.856,0-37.284-3.732-47.476-8.612c-1.212-0.844-2.216-1.712-3.048-2.596
				c0.56-9.164,23.44-16.844,50.516-16.844C243.817,116.24,266.669,123.896,267.293,133.044z M238.693,314.184
				c9.348,1.704,11.664,3.904,11.768,4.368c-0.444,2.088-12.736,6.152-33.668,6.152s-33.224-4.064-33.668-6.116
				c0.108-0.496,2.424-2.692,12.084-4.484c1.544-0.544,13.936-3.276,15.708-8.804c0.584-1.808,5.752-59.436,3.236-82.832
				c1.72,0.164,3.676,0.2,5.716-0.052c-1.924,23.184,1.928,80.152,2.808,82.884C224.445,310.824,238.693,314.184,238.693,314.184z
				 M216.801,217.976c-13.16,0-26.612-9.548-36.888-26.192c-7.828-12.68-13.152-28.56-15.16-44.34
				c0.556,0.516,1.116,1.028,1.788,1.516c8.376,6.08,25.188,9.26,45.064,9.26c13.54,0,28.504-1.48,43.184-4.524l-0.46-2.22
				c-35.664,7.4-72.836,5.528-86.452-4.352c-1.588-1.152-2.76-2.388-3.58-3.688c-0.184-2.036-0.344-4.072-0.412-6.088
				c1.108,0.68,20.488,12.604,52.216,12.604c35.024,0,52.036-11.636,53.612-12.604c-0.636,18.924-6.524,39.036-16.032,54.436
				C243.405,208.428,229.961,217.976,216.801,217.976z"/>
		</g>
	</g>
</g>
</svg>